FILE "I Built a Roller Coaster In My Lab.mp3" MP3
  TRACK 01 AUDIO
    INDEX 01 00:00:00
  TRACK 02 AUDIO
    INDEX 01 00:03:00
  TRACK 03 AUDIO
    INDEX 01 00:06:00
  TRACK 04 AUDIO
    INDEX 01 00:09:00
  TRACK 05 AUDIO
    INDEX 01 00:10:00
  TRACK 06 AUDIO
    INDEX 01 00:13:00
  TRACK 07 AUDIO
    INDEX 01 00:15:00
  TRACK 08 AUDIO
    INDEX 01 00:16:00
  TRACK 09 AUDIO
    INDEX 01 00:19:00
  TRACK 10 AUDIO
    INDEX 01 00:21:00
  TRACK 11 AUDIO
    INDEX 01 00:25:00
  TRACK 12 AUDIO
    INDEX 01 00:26:00
  TRACK 13 AUDIO
    INDEX 01 00:27:00
  TRACK 14 AUDIO
    INDEX 01 00:30:00
  TRACK 15 AUDIO
    INDEX 01 00:31:00
  TRACK 16 AUDIO
    INDEX 01 00:32:00
  TRACK 17 AUDIO
    INDEX 01 00:35:00
  TRACK 18 AUDIO
    INDEX 01 00:37:00
  TRACK 19 AUDIO
    INDEX 01 00:41:00
  TRACK 20 AUDIO
    INDEX 01 00:44:00
  TRACK 21 AUDIO
    INDEX 01 00:46:00
  TRACK 22 AUDIO
    INDEX 01 00:49:00
  TRACK 23 AUDIO
    INDEX 01 00:50:00
  TRACK 24 AUDIO
    INDEX 01 00:53:00
  TRACK 25 AUDIO
    INDEX 01 00:55:00
  TRACK 26 AUDIO
    INDEX 01 00:57:00
  TRACK 27 AUDIO
    INDEX 01 00:59:00
  TRACK 28 AUDIO
    INDEX 01 01:01:00
  TRACK 29 AUDIO
    INDEX 01 01:04:00
  TRACK 30 AUDIO
    INDEX 01 01:07:00
  TRACK 31 AUDIO
    INDEX 01 01:08:00
  TRACK 32 AUDIO
    INDEX 01 01:10:00
  TRACK 33 AUDIO
    INDEX 01 01:12:00
  TRACK 34 AUDIO
    INDEX 01 01:14:00
  TRACK 35 AUDIO
    INDEX 01 01:17:00
  TRACK 36 AUDIO
    INDEX 01 01:19:00
  TRACK 37 AUDIO
    INDEX 01 01:23:00
  TRACK 38 AUDIO
    INDEX 01 01:26:00
  TRACK 39 AUDIO
    INDEX 01 01:28:00
  TRACK 40 AUDIO
    INDEX 01 01:29:00
  TRACK 41 AUDIO
    INDEX 01 01:33:00
  TRACK 42 AUDIO
    INDEX 01 01:35:00
  TRACK 43 AUDIO
    INDEX 01 01:38:00
  TRACK 44 AUDIO
    INDEX 01 01:40:00
  TRACK 45 AUDIO
    INDEX 01 01:42:00
  TRACK 46 AUDIO
    INDEX 01 01:44:00
  TRACK 47 AUDIO
    INDEX 01 01:46:00
  TRACK 48 AUDIO
    INDEX 01 01:48:00
  TRACK 49 AUDIO
    INDEX 01 01:49:00
  TRACK 50 AUDIO
    INDEX 01 01:50:00
  TRACK 51 AUDIO
    INDEX 01 01:51:00
  TRACK 52 AUDIO
    INDEX 01 01:52:00
  TRACK 53 AUDIO
    INDEX 01 01:53:00
  TRACK 54 AUDIO
    INDEX 01 01:54:00
  TRACK 55 AUDIO
    INDEX 01 02:00:00
  TRACK 56 AUDIO
    INDEX 01 02:03:00
  TRACK 57 AUDIO
    INDEX 01 02:05:00
  TRACK 58 AUDIO
    INDEX 01 02:07:00
  TRACK 59 AUDIO
    INDEX 01 02:10:00
  TRACK 60 AUDIO
    INDEX 01 02:12:00
  TRACK 61 AUDIO
    INDEX 01 02:13:00
  TRACK 62 AUDIO
    INDEX 01 02:15:00
  TRACK 63 AUDIO
    INDEX 01 02:22:00
  TRACK 64 AUDIO
    INDEX 01 02:23:00
  TRACK 65 AUDIO
    INDEX 01 02:28:00
  TRACK 66 AUDIO
    INDEX 01 02:30:00
  TRACK 67 AUDIO
    INDEX 01 02:32:00
  TRACK 68 AUDIO
    INDEX 01 02:34:00
  TRACK 69 AUDIO
    INDEX 01 02:36:00
  TRACK 70 AUDIO
    INDEX 01 02:37:00
  TRACK 71 AUDIO
    INDEX 01 02:38:00
  TRACK 72 AUDIO
    INDEX 01 02:39:00
  TRACK 73 AUDIO
    INDEX 01 02:41:00
  TRACK 74 AUDIO
    INDEX 01 02:44:00
  TRACK 75 AUDIO
    INDEX 01 02:46:00
  TRACK 76 AUDIO
    INDEX 01 02:48:00
  TRACK 77 AUDIO
    INDEX 01 02:50:00
  TRACK 78 AUDIO
    INDEX 01 02:52:00
  TRACK 79 AUDIO
    INDEX 01 02:54:00
  TRACK 80 AUDIO
    INDEX 01 02:55:00
  TRACK 81 AUDIO
    INDEX 01 02:59:00
  TRACK 82 AUDIO
    INDEX 01 03:01:00
  TRACK 83 AUDIO
    INDEX 01 03:04:00
  TRACK 84 AUDIO
    INDEX 01 03:05:00
  TRACK 85 AUDIO
    INDEX 01 03:06:00
  TRACK 86 AUDIO
    INDEX 01 03:08:00
  TRACK 87 AUDIO
    INDEX 01 03:11:00
  TRACK 88 AUDIO
    INDEX 01 03:12:00
  TRACK 89 AUDIO
    INDEX 01 03:15:00
  TRACK 90 AUDIO
    INDEX 01 03:16:00
  TRACK 91 AUDIO
    INDEX 01 03:17:00
  TRACK 92 AUDIO
    INDEX 01 03:18:00
  TRACK 93 AUDIO
    INDEX 01 03:19:00
  TRACK 94 AUDIO
    INDEX 01 03:20:00
  TRACK 95 AUDIO
    INDEX 01 03:21:00
  TRACK 96 AUDIO
    INDEX 01 03:24:00
  TRACK 97 AUDIO
    INDEX 01 03:28:00
  TRACK 98 AUDIO
    INDEX 01 03:30:00
  TRACK 99 AUDIO
    INDEX 01 03:31:00
  TRACK 100 AUDIO
    INDEX 01 03:33:00
  TRACK 101 AUDIO
    INDEX 01 03:35:00
  TRACK 102 AUDIO
    INDEX 01 03:38:00
  TRACK 103 AUDIO
    INDEX 01 03:40:00
  TRACK 104 AUDIO
    INDEX 01 03:42:00
  TRACK 105 AUDIO
    INDEX 01 03:43:00
  TRACK 106 AUDIO
    INDEX 01 03:47:00
  TRACK 107 AUDIO
    INDEX 01 03:50:00
  TRACK 108 AUDIO
    INDEX 01 03:51:00
  TRACK 109 AUDIO
    INDEX 01 03:56:00
  TRACK 110 AUDIO
    INDEX 01 04:01:00
  TRACK 111 AUDIO
    INDEX 01 04:03:00
  TRACK 112 AUDIO
    INDEX 01 04:06:00
  TRACK 113 AUDIO
    INDEX 01 04:08:00
  TRACK 114 AUDIO
    INDEX 01 04:09:00
  TRACK 115 AUDIO
    INDEX 01 04:10:00
  TRACK 116 AUDIO
    INDEX 01 04:11:00
  TRACK 117 AUDIO
    INDEX 01 04:12:00
  TRACK 118 AUDIO
    INDEX 01 04:14:00
  TRACK 119 AUDIO
    INDEX 01 04:17:00
  TRACK 120 AUDIO
    INDEX 01 04:18:00
  TRACK 121 AUDIO
    INDEX 01 04:20:00
  TRACK 122 AUDIO
    INDEX 01 04:24:00
  TRACK 123 AUDIO
    INDEX 01 04:26:00
  TRACK 124 AUDIO
    INDEX 01 04:31:00
  TRACK 125 AUDIO
    INDEX 01 04:36:00
  TRACK 126 AUDIO
    INDEX 01 04:43:00
  TRACK 127 AUDIO
    INDEX 01 04:44:00
  TRACK 128 AUDIO
    INDEX 01 04:49:00
  TRACK 129 AUDIO
    INDEX 01 04:50:00
  TRACK 130 AUDIO
    INDEX 01 04:51:00
  TRACK 131 AUDIO
    INDEX 01 04:56:00
  TRACK 132 AUDIO
    INDEX 01 05:00:00
  TRACK 133 AUDIO
    INDEX 01 05:01:00
  TRACK 134 AUDIO
    INDEX 01 05:05:00
  TRACK 135 AUDIO
    INDEX 01 05:08:00
  TRACK 136 AUDIO
    INDEX 01 05:11:00
  TRACK 137 AUDIO
    INDEX 01 05:12:00
  TRACK 138 AUDIO
    INDEX 01 05:18:00
  TRACK 139 AUDIO
    INDEX 01 05:22:00
  TRACK 140 AUDIO
    INDEX 01 05:23:00
  TRACK 141 AUDIO
    INDEX 01 05:25:00
  TRACK 142 AUDIO
    INDEX 01 05:27:00
  TRACK 143 AUDIO
    INDEX 01 05:30:00
  TRACK 144 AUDIO
    INDEX 01 05:32:00
  TRACK 145 AUDIO
    INDEX 01 05:35:00
  TRACK 146 AUDIO
    INDEX 01 05:39:00
  TRACK 147 AUDIO
    INDEX 01 05:49:00
  TRACK 148 AUDIO
    INDEX 01 05:54:00
  TRACK 149 AUDIO
    INDEX 01 05:55:00
  TRACK 150 AUDIO
    INDEX 01 05:56:00
  TRACK 151 AUDIO
    INDEX 01 05:59:00
  TRACK 152 AUDIO
    INDEX 01 06:02:00
  TRACK 153 AUDIO
    INDEX 01 06:04:00
  TRACK 154 AUDIO
    INDEX 01 06:08:00
  TRACK 155 AUDIO
    INDEX 01 06:13:00
  TRACK 156 AUDIO
    INDEX 01 06:18:00
  TRACK 157 AUDIO
    INDEX 01 06:19:00
  TRACK 158 AUDIO
    INDEX 01 06:23:00
  TRACK 159 AUDIO
    INDEX 01 06:27:00
  TRACK 160 AUDIO
    INDEX 01 06:28:00
  TRACK 161 AUDIO
    INDEX 01 06:29:00
  TRACK 162 AUDIO
    INDEX 01 06:31:00
  TRACK 163 AUDIO
    INDEX 01 06:32:00
  TRACK 164 AUDIO
    INDEX 01 06:33:00
  TRACK 165 AUDIO
    INDEX 01 06:39:00
  TRACK 166 AUDIO
    INDEX 01 06:41:00
  TRACK 167 AUDIO
    INDEX 01 06:46:00
  TRACK 168 AUDIO
    INDEX 01 06:47:00
  TRACK 169 AUDIO
    INDEX 01 06:48:00
  TRACK 170 AUDIO
    INDEX 01 06:49:00
  TRACK 171 AUDIO
    INDEX 01 06:50:00
  TRACK 172 AUDIO
    INDEX 01 06:54:00
  TRACK 173 AUDIO
    INDEX 01 06:55:00
  TRACK 174 AUDIO
    INDEX 01 06:57:00
  TRACK 175 AUDIO
    INDEX 01 06:59:00
  TRACK 176 AUDIO
    INDEX 01 07:02:00
  TRACK 177 AUDIO
    INDEX 01 07:03:00
  TRACK 178 AUDIO
    INDEX 01 07:04:00
  TRACK 179 AUDIO
    INDEX 01 07:06:00
  TRACK 180 AUDIO
    INDEX 01 07:09:00
  TRACK 181 AUDIO
    INDEX 01 07:11:00
  TRACK 182 AUDIO
    INDEX 01 07:14:00
  TRACK 183 AUDIO
    INDEX 01 07:15:00
  TRACK 184 AUDIO
    INDEX 01 07:17:00
  TRACK 185 AUDIO
    INDEX 01 07:18:00
  TRACK 186 AUDIO
    INDEX 01 07:19:00
  TRACK 187 AUDIO
    INDEX 01 07:24:00
  TRACK 188 AUDIO
    INDEX 01 07:25:00
  TRACK 189 AUDIO
    INDEX 01 07:26:00
  TRACK 190 AUDIO
    INDEX 01 07:29:00
  TRACK 191 AUDIO
    INDEX 01 07:30:00
  TRACK 192 AUDIO
    INDEX 01 07:32:00
  TRACK 193 AUDIO
    INDEX 01 07:33:00
  TRACK 194 AUDIO
    INDEX 01 07:34:00
  TRACK 195 AUDIO
    INDEX 01 07:35:00
  TRACK 196 AUDIO
    INDEX 01 07:40:00
  TRACK 197 AUDIO
    INDEX 01 07:42:00
  TRACK 198 AUDIO
    INDEX 01 07:45:00
  TRACK 199 AUDIO
    INDEX 01 07:47:00
  TRACK 200 AUDIO
    INDEX 01 07:48:00
  TRACK 201 AUDIO
    INDEX 01 07:51:00
  TRACK 202 AUDIO
    INDEX 01 07:56:00
  TRACK 203 AUDIO
    INDEX 01 07:59:00
  TRACK 204 AUDIO
    INDEX 01 08:00:00
  TRACK 205 AUDIO
    INDEX 01 08:04:00
  TRACK 206 AUDIO
    INDEX 01 08:08:00
  TRACK 207 AUDIO
    INDEX 01 08:13:00
  TRACK 208 AUDIO
    INDEX 01 08:14:00
  TRACK 209 AUDIO
    INDEX 01 08:16:00
  TRACK 210 AUDIO
    INDEX 01 08:18:00
  TRACK 211 AUDIO
    INDEX 01 08:22:00
  TRACK 212 AUDIO
    INDEX 01 08:23:00
  TRACK 213 AUDIO
    INDEX 01 08:24:00
  TRACK 214 AUDIO
    INDEX 01 08:25:00
  TRACK 215 AUDIO
    INDEX 01 08:28:00
  TRACK 216 AUDIO
    INDEX 01 08:29:00
  TRACK 217 AUDIO
    INDEX 01 08:30:00
  TRACK 218 AUDIO
    INDEX 01 08:34:00
  TRACK 219 AUDIO
    INDEX 01 08:35:00
  TRACK 220 AUDIO
    INDEX 01 08:46:00
  TRACK 221 AUDIO
    INDEX 01 08:50:00
  TRACK 222 AUDIO
    INDEX 01 08:51:00
  TRACK 223 AUDIO
    INDEX 01 08:52:00
  TRACK 224 AUDIO
    INDEX 01 08:56:00
  TRACK 225 AUDIO
    INDEX 01 09:00:00
  TRACK 226 AUDIO
    INDEX 01 09:02:00
  TRACK 227 AUDIO
    INDEX 01 09:03:00
  TRACK 228 AUDIO
    INDEX 01 09:04:00
  TRACK 229 AUDIO
    INDEX 01 09:10:00
  TRACK 230 AUDIO
    INDEX 01 09:12:00
  TRACK 231 AUDIO
    INDEX 01 09:13:00
  TRACK 232 AUDIO
    INDEX 01 09:14:00
  TRACK 233 AUDIO
    INDEX 01 09:19:00
  TRACK 234 AUDIO
    INDEX 01 09:21:00
  TRACK 235 AUDIO
    INDEX 01 09:23:00
  TRACK 236 AUDIO
    INDEX 01 09:25:00
  TRACK 237 AUDIO
    INDEX 01 09:28:00
  TRACK 238 AUDIO
    INDEX 01 09:32:00
  TRACK 239 AUDIO
    INDEX 01 09:35:00
  TRACK 240 AUDIO
    INDEX 01 09:37:00
  TRACK 241 AUDIO
    INDEX 01 09:41:00
  TRACK 242 AUDIO
    INDEX 01 09:42:00
  TRACK 243 AUDIO
    INDEX 01 09:46:00
  TRACK 244 AUDIO
    INDEX 01 09:47:00
  TRACK 245 AUDIO
    INDEX 01 09:48:00
  TRACK 246 AUDIO
    INDEX 01 09:50:00
  TRACK 247 AUDIO
    INDEX 01 09:53:00
  TRACK 248 AUDIO
    INDEX 01 09:55:00
  TRACK 249 AUDIO
    INDEX 01 09:56:00
  TRACK 250 AUDIO
    INDEX 01 09:59:00
  TRACK 251 AUDIO
    INDEX 01 10:02:00
  TRACK 252 AUDIO
    INDEX 01 10:05:00
  TRACK 253 AUDIO
    INDEX 01 10:06:00
  TRACK 254 AUDIO
    INDEX 01 10:08:00
  TRACK 255 AUDIO
    INDEX 01 10:12:00
  TRACK 256 AUDIO
    INDEX 01 10:13:00
  TRACK 257 AUDIO
    INDEX 01 10:17:00
  TRACK 258 AUDIO
    INDEX 01 10:18:00
  TRACK 259 AUDIO
    INDEX 01 10:19:00
  TRACK 260 AUDIO
    INDEX 01 10:20:00
  TRACK 261 AUDIO
    INDEX 01 10:22:00
  TRACK 262 AUDIO
    INDEX 01 10:24:00
  TRACK 263 AUDIO
    INDEX 01 10:25:00
  TRACK 264 AUDIO
    INDEX 01 10:27:00
  TRACK 265 AUDIO
    INDEX 01 10:28:00
  TRACK 266 AUDIO
    INDEX 01 10:29:00
  TRACK 267 AUDIO
    INDEX 01 10:30:00
  TRACK 268 AUDIO
    INDEX 01 10:32:00
  TRACK 269 AUDIO
    INDEX 01 10:34:00
  TRACK 270 AUDIO
    INDEX 01 10:35:00
  TRACK 271 AUDIO
    INDEX 01 10:36:00
  TRACK 272 AUDIO
    INDEX 01 10:39:00
  TRACK 273 AUDIO
    INDEX 01 10:40:00
  TRACK 274 AUDIO
    INDEX 01 10:42:00
  TRACK 275 AUDIO
    INDEX 01 10:43:00
  TRACK 276 AUDIO
    INDEX 01 10:46:00
  TRACK 277 AUDIO
    INDEX 01 10:47:00
  TRACK 278 AUDIO
    INDEX 01 10:48:00
  TRACK 279 AUDIO
    INDEX 01 10:50:00
  TRACK 280 AUDIO
    INDEX 01 10:52:00
  TRACK 281 AUDIO
    INDEX 01 10:53:00
  TRACK 282 AUDIO
    INDEX 01 10:54:00
  TRACK 283 AUDIO
    INDEX 01 10:55:00
  TRACK 284 AUDIO
    INDEX 01 10:58:00
  TRACK 285 AUDIO
    INDEX 01 10:59:00
  TRACK 286 AUDIO
    INDEX 01 11:00:00
  TRACK 287 AUDIO
    INDEX 01 11:01:00
  TRACK 288 AUDIO
    INDEX 01 11:03:00
  TRACK 289 AUDIO
    INDEX 01 11:04:00
  TRACK 290 AUDIO
    INDEX 01 11:06:00
  TRACK 291 AUDIO
    INDEX 01 11:07:00
  TRACK 292 AUDIO
    INDEX 01 11:09:00
  TRACK 293 AUDIO
    INDEX 01 11:11:00
  TRACK 294 AUDIO
    INDEX 01 11:14:00
  TRACK 295 AUDIO
    INDEX 01 11:19:00
  TRACK 296 AUDIO
    INDEX 01 11:21:00
  TRACK 297 AUDIO
    INDEX 01 11:23:00
  TRACK 298 AUDIO
    INDEX 01 11:26:00
  TRACK 299 AUDIO
    INDEX 01 11:28:00
  TRACK 300 AUDIO
    INDEX 01 11:29:00
  TRACK 301 AUDIO
    INDEX 01 11:30:00
  TRACK 302 AUDIO
    INDEX 01 11:31:00
  TRACK 303 AUDIO
    INDEX 01 11:32:00
  TRACK 304 AUDIO
    INDEX 01 11:36:00
  TRACK 305 AUDIO
    INDEX 01 11:38:00
  TRACK 306 AUDIO
    INDEX 01 11:42:00
  TRACK 307 AUDIO
    INDEX 01 11:47:00
  TRACK 308 AUDIO
    INDEX 01 11:54:00
  TRACK 309 AUDIO
    INDEX 01 11:59:00
  TRACK 310 AUDIO
    INDEX 01 12:04:00
  TRACK 311 AUDIO
    INDEX 01 12:07:00
  TRACK 312 AUDIO
    INDEX 01 12:12:00
  TRACK 313 AUDIO
    INDEX 01 12:15:00
  TRACK 314 AUDIO
    INDEX 01 12:19:00
  TRACK 315 AUDIO
    INDEX 01 12:22:00
  TRACK 316 AUDIO
    INDEX 01 12:27:00
  TRACK 317 AUDIO
    INDEX 01 12:30:00
  TRACK 318 AUDIO
    INDEX 01 12:31:00
  TRACK 319 AUDIO
    INDEX 01 12:35:00
  TRACK 320 AUDIO
    INDEX 01 12:36:00
  TRACK 321 AUDIO
    INDEX 01 12:41:00
  TRACK 322 AUDIO
    INDEX 01 12:45:00
  TRACK 323 AUDIO
    INDEX 01 12:49:00
  TRACK 324 AUDIO
    INDEX 01 12:51:00
  TRACK 325 AUDIO
    INDEX 01 12:53:00
  TRACK 326 AUDIO
    INDEX 01 12:54:00
  TRACK 327 AUDIO
    INDEX 01 13:02:00
  TRACK 328 AUDIO
    INDEX 01 13:06:00
  TRACK 329 AUDIO
    INDEX 01 13:10:00
  TRACK 330 AUDIO
    INDEX 01 13:12:00
  TRACK 331 AUDIO
    INDEX 01 13:13:00
  TRACK 332 AUDIO
    INDEX 01 13:16:00
  TRACK 333 AUDIO
    INDEX 01 13:20:00
  TRACK 334 AUDIO
    INDEX 01 13:27:00
  TRACK 335 AUDIO
    INDEX 01 13:30:00
  TRACK 336 AUDIO
    INDEX 01 13:32:00
  TRACK 337 AUDIO
    INDEX 01 13:33:00
  TRACK 338 AUDIO
    INDEX 01 13:34:00
  TRACK 339 AUDIO
    INDEX 01 13:35:00
  TRACK 340 AUDIO
    INDEX 01 13:36:00
  TRACK 341 AUDIO
    INDEX 01 13:37:00
  TRACK 342 AUDIO
    INDEX 01 13:38:00
  TRACK 343 AUDIO
    INDEX 01 13:43:00
  TRACK 344 AUDIO
    INDEX 01 13:46:00
  TRACK 345 AUDIO
    INDEX 01 13:48:00
  TRACK 346 AUDIO
    INDEX 01 13:50:00
  TRACK 347 AUDIO
    INDEX 01 13:51:00
  TRACK 348 AUDIO
    INDEX 01 13:53:00
  TRACK 349 AUDIO
    INDEX 01 13:55:00
  TRACK 350 AUDIO
    INDEX 01 13:56:00
  TRACK 351 AUDIO
    INDEX 01 13:57:00
  TRACK 352 AUDIO
    INDEX 01 14:02:00
  TRACK 353 AUDIO
    INDEX 01 14:03:00
  TRACK 354 AUDIO
    INDEX 01 14:06:00
  TRACK 355 AUDIO
    INDEX 01 14:08:00
  TRACK 356 AUDIO
    INDEX 01 14:09:00
  TRACK 357 AUDIO
    INDEX 01 14:14:00
  TRACK 358 AUDIO
    INDEX 01 14:17:00
  TRACK 359 AUDIO
    INDEX 01 14:22:00
  TRACK 360 AUDIO
    INDEX 01 14:25:00
  TRACK 361 AUDIO
    INDEX 01 14:27:00
  TRACK 362 AUDIO
    INDEX 01 14:29:00
  TRACK 363 AUDIO
    INDEX 01 14:30:00
  TRACK 364 AUDIO
    INDEX 01 14:31:00
  TRACK 365 AUDIO
    INDEX 01 14:32:00
  TRACK 366 AUDIO
    INDEX 01 14:33:00
  TRACK 367 AUDIO
    INDEX 01 14:34:00
  TRACK 368 AUDIO
    INDEX 01 14:37:00
  TRACK 369 AUDIO
    INDEX 01 14:39:00
  TRACK 370 AUDIO
    INDEX 01 14:41:00
  TRACK 371 AUDIO
    INDEX 01 14:42:00
  TRACK 372 AUDIO
    INDEX 01 14:43:00
  TRACK 373 AUDIO
    INDEX 01 14:44:00
  TRACK 374 AUDIO
    INDEX 01 14:45:00
  TRACK 375 AUDIO
    INDEX 01 14:46:00
  TRACK 376 AUDIO
    INDEX 01 14:51:00
  TRACK 377 AUDIO
    INDEX 01 14:52:00
  TRACK 378 AUDIO
    INDEX 01 14:53:00
  TRACK 379 AUDIO
    INDEX 01 14:54:00
  TRACK 380 AUDIO
    INDEX 01 14:55:00
  TRACK 381 AUDIO
    INDEX 01 14:56:00
  TRACK 382 AUDIO
    INDEX 01 15:00:00
  TRACK 383 AUDIO
    INDEX 01 15:03:00
  TRACK 384 AUDIO
    INDEX 01 15:06:00
  TRACK 385 AUDIO
    INDEX 01 15:09:00
  TRACK 386 AUDIO
    INDEX 01 15:13:00
  TRACK 387 AUDIO
    INDEX 01 15:16:00
  TRACK 388 AUDIO
    INDEX 01 15:17:00
  TRACK 389 AUDIO
    INDEX 01 15:18:00
  TRACK 390 AUDIO
    INDEX 01 15:19:00
  TRACK 391 AUDIO
    INDEX 01 15:20:00
  TRACK 392 AUDIO
    INDEX 01 15:21:00
  TRACK 393 AUDIO
    INDEX 01 15:22:00
  TRACK 394 AUDIO
    INDEX 01 15:23:00
  TRACK 395 AUDIO
    INDEX 01 15:24:00
  TRACK 396 AUDIO
    INDEX 01 15:25:00
  TRACK 397 AUDIO
    INDEX 01 15:27:00
  TRACK 398 AUDIO
    INDEX 01 15:28:00
  TRACK 399 AUDIO
    INDEX 01 15:30:00
  TRACK 400 AUDIO
    INDEX 01 15:33:00
  TRACK 401 AUDIO
    INDEX 01 15:36:00
  TRACK 402 AUDIO
    INDEX 01 15:37:00
  TRACK 403 AUDIO
    INDEX 01 15:38:00
  TRACK 404 AUDIO
    INDEX 01 15:39:00
  TRACK 405 AUDIO
    INDEX 01 15:40:00
  TRACK 406 AUDIO
    INDEX 01 15:41:00
  TRACK 407 AUDIO
    INDEX 01 15:42:00
  TRACK 408 AUDIO
    INDEX 01 15:43:00
  TRACK 409 AUDIO
    INDEX 01 15:45:00
  TRACK 410 AUDIO
    INDEX 01 15:46:00
  TRACK 411 AUDIO
    INDEX 01 15:48:00
  TRACK 412 AUDIO
    INDEX 01 15:49:00
  TRACK 413 AUDIO
    INDEX 01 15:50:00
  TRACK 414 AUDIO
    INDEX 01 15:54:00
  TRACK 415 AUDIO
    INDEX 01 15:56:00
  TRACK 416 AUDIO
    INDEX 01 15:58:00
  TRACK 417 AUDIO
    INDEX 01 16:02:00
  TRACK 418 AUDIO
    INDEX 01 16:05:00
  TRACK 419 AUDIO
    INDEX 01 16:07:00
  TRACK 420 AUDIO
    INDEX 01 16:08:00
  TRACK 421 AUDIO
    INDEX 01 16:09:00
  TRACK 422 AUDIO
    INDEX 01 16:11:00
  TRACK 423 AUDIO
    INDEX 01 16:13:00
  TRACK 424 AUDIO
    INDEX 01 16:15:00
  TRACK 425 AUDIO
    INDEX 01 16:17:00
  TRACK 426 AUDIO
    INDEX 01 16:18:00
  TRACK 427 AUDIO
    INDEX 01 16:19:00
  TRACK 428 AUDIO
    INDEX 01 16:21:00
  TRACK 429 AUDIO
    INDEX 01 16:24:00
  TRACK 430 AUDIO
    INDEX 01 16:25:00
  TRACK 431 AUDIO
    INDEX 01 16:26:00
  TRACK 432 AUDIO
    INDEX 01 16:27:00
  TRACK 433 AUDIO
    INDEX 01 16:28:00
  TRACK 434 AUDIO
    INDEX 01 16:29:00
  TRACK 435 AUDIO
    INDEX 01 16:30:00
  TRACK 436 AUDIO
    INDEX 01 16:31:00
  TRACK 437 AUDIO
    INDEX 01 16:32:00
  TRACK 438 AUDIO
    INDEX 01 16:33:00
  TRACK 439 AUDIO
    INDEX 01 16:34:00
  TRACK 440 AUDIO
    INDEX 01 16:35:00
  TRACK 441 AUDIO
    INDEX 01 16:36:00
  TRACK 442 AUDIO
    INDEX 01 16:37:00
  TRACK 443 AUDIO
    INDEX 01 16:38:00
  TRACK 444 AUDIO
    INDEX 01 16:39:00
  TRACK 445 AUDIO
    INDEX 01 16:40:00
  TRACK 446 AUDIO
    INDEX 01 16:41:00
  TRACK 447 AUDIO
    INDEX 01 16:43:00
  TRACK 448 AUDIO
    INDEX 01 16:45:00
  TRACK 449 AUDIO
    INDEX 01 16:46:00
  TRACK 450 AUDIO
    INDEX 01 16:47:00
  TRACK 451 AUDIO
    INDEX 01 16:48:00
  TRACK 452 AUDIO
    INDEX 01 16:50:00
  TRACK 453 AUDIO
    INDEX 01 16:51:00
  TRACK 454 AUDIO
    INDEX 01 16:54:00
  TRACK 455 AUDIO
    INDEX 01 16:55:00
  TRACK 456 AUDIO
    INDEX 01 16:56:00
  TRACK 457 AUDIO
    INDEX 01 16:57:00
  TRACK 458 AUDIO
    INDEX 01 16:58:00
  TRACK 459 AUDIO
    INDEX 01 16:59:00
  TRACK 460 AUDIO
    INDEX 01 17:00:00
  TRACK 461 AUDIO
    INDEX 01 17:01:00
  TRACK 462 AUDIO
    INDEX 01 17:05:00
  TRACK 463 AUDIO
    INDEX 01 17:06:00
  TRACK 464 AUDIO
    INDEX 01 17:07:00
  TRACK 465 AUDIO
    INDEX 01 17:08:00
  TRACK 466 AUDIO
    INDEX 01 17:10:00
  TRACK 467 AUDIO
    INDEX 01 17:12:00
  TRACK 468 AUDIO
    INDEX 01 17:15:00
  TRACK 469 AUDIO
    INDEX 01 17:16:00
  TRACK 470 AUDIO
    INDEX 01 17:21:00
  TRACK 471 AUDIO
    INDEX 01 17:25:00
  TRACK 472 AUDIO
    INDEX 01 17:33:00
  TRACK 473 AUDIO
    INDEX 01 17:35:00
  TRACK 474 AUDIO
    INDEX 01 17:38:00
  TRACK 475 AUDIO
    INDEX 01 17:39:00
  TRACK 476 AUDIO
    INDEX 01 17:41:00
  TRACK 477 AUDIO
    INDEX 01 17:44:00
  TRACK 478 AUDIO
    INDEX 01 17:48:00
  TRACK 479 AUDIO
    INDEX 01 17:50:00
  TRACK 480 AUDIO
    INDEX 01 17:52:00
  TRACK 481 AUDIO
    INDEX 01 17:55:00
  TRACK 482 AUDIO
    INDEX 01 17:57:00
  TRACK 483 AUDIO
    INDEX 01 18:00:00
  TRACK 484 AUDIO
    INDEX 01 18:02:00
  TRACK 485 AUDIO
    INDEX 01 18:09:00
  TRACK 486 AUDIO
    INDEX 01 18:10:00
  TRACK 487 AUDIO
    INDEX 01 18:11:00
  TRACK 488 AUDIO
    INDEX 01 18:13:00
  TRACK 489 AUDIO
    INDEX 01 18:16:00
  TRACK 490 AUDIO
    INDEX 01 18:17:00
  TRACK 491 AUDIO
    INDEX 01 18:19:00
  TRACK 492 AUDIO
    INDEX 01 18:20:00
  TRACK 493 AUDIO
    INDEX 01 18:21:00
  TRACK 494 AUDIO
    INDEX 01 18:23:00
  TRACK 495 AUDIO
    INDEX 01 18:26:00
  TRACK 496 AUDIO
    INDEX 01 18:28:00
  TRACK 497 AUDIO
    INDEX 01 18:30:00
  TRACK 498 AUDIO
    INDEX 01 18:34:00
  TRACK 499 AUDIO
    INDEX 01 18:35:00
  TRACK 500 AUDIO
    INDEX 01 18:38:00
